<?xml version="1.0" ?><svg enable-background="new 0 0 800 800" id="Layer_1" version="1.1" viewBox="0 0 800 800" xml:space="preserve" xmlns="http://www.w3.org/2000/svg" xmlns:xlink="http://www.w3.org/1999/xlink"><g><path d="M688,22.4H582.4c-18.1,0-32,13.9-32,32v20.3c0,18.1,13.9,32,32,32h38.4c-3.2,3.2-5.3,6.4-8.5,8.5l0,0   c-40.5,40.5-59.7,84.3-81.1,130.1C504.5,302.9,475.7,368,395.7,448S249.6,558.9,190.9,586.7C144,608,100.3,628.3,59.7,668.8   c-6.4,6.4-9.6,14.9-9.6,24.5c0,8.5,4.3,17.1,11.7,23.5c43.7,36.3,103.5,55.5,170.7,55.5l0,0c118.4,0,261.3-59.7,339.2-141.9   c57.6-55.5,107.7-147.2,130.1-240c23.5-98.1,13.9-185.6-26.7-249.6c19.2-22.4,43.7-56.5,43.7-86.4C720,36.3,706.1,22.4,688,22.4z    M528,583.5l-1.1,1.1c-56.5,59.7-178.1,122.7-293.3,122.7c-37.3,0-69.3-6.4-97.1-20.3c24.5-17.1,50.1-28.8,81.1-43.7   c60.8-27.7,135.5-62.9,222.9-150.4c88.5-88.5,121.6-162.1,149.3-221.9c13.9-29.9,25.6-56.5,41.6-80   C688,309.3,615.5,501.3,528,583.5z"/></g></svg>