<?xml version="1.0" ?><svg enable-background="new 0 0 24 24" id="Layer_1" version="1.1" viewBox="0 0 24 24" xml:space="preserve" xmlns="http://www.w3.org/2000/svg" xmlns:xlink="http://www.w3.org/1999/xlink"><g><g><path d="M4.5,13.1124058    C4.5,8.7667618,7.8698993,0.5,12,0.5s7.5,8.2667618,7.5,12.6124058C19.5,17.192461,16.1421356,20.5,12,20.5    S4.5,17.192461,4.5,13.1124058z" fill="none" stroke="#303C42" stroke-linecap="round" stroke-linejoin="round" stroke-miterlimit="10"/></g><g><path d="M4.5,13.1124058    C4.5,8.7667618,7.8698993,0.5,12,0.5s7.5,8.2667618,7.5,12.6124058C19.5,17.192461,16.1421356,20.5,12,20.5    S4.5,17.192461,4.5,13.1124058z" fill="none" stroke="#303C42" stroke-linecap="round" stroke-linejoin="round" stroke-miterlimit="10"/></g><polyline fill="none" points="   9.7023411,1.3435464 12,2 11,4 13.5,5 11.5,6.5 12.456522,7.804348  " stroke="#303C42" stroke-linecap="round" stroke-linejoin="round" stroke-miterlimit="10"/><polyline fill="none" points="   8.5,19.6472912 8.5,22 7,22.5  " stroke="#303C42" stroke-linecap="round" stroke-linejoin="round" stroke-miterlimit="10"/><polyline fill="none" points="10,22.5    8.5,22 8.5,23.5  " stroke="#303C42" stroke-linecap="round" stroke-linejoin="round" stroke-miterlimit="10"/><polyline fill="none" points="   15.5,19.6472912 15.5,22 14,22.5  " stroke="#303C42" stroke-linecap="round" stroke-linejoin="round" stroke-miterlimit="10"/><polyline fill="none" points="17,22.5    15.5,22 15.5,23.5  " stroke="#303C42" stroke-linecap="round" stroke-linejoin="round" stroke-miterlimit="10"/></g><g/><g/><g/><g/><g/><g/><g/><g/><g/><g/><g/><g/><g/><g/><g/></svg>