<?xml version="1.0" ?><!DOCTYPE svg  PUBLIC '-//W3C//DTD SVG 1.1//EN'  'http://www.w3.org/Graphics/SVG/1.1/DTD/svg11.dtd'><svg enable-background="new 0 0 50 50" height="50px" id="Capa_1" version="1.1" viewBox="0 0 50 50" width="50px" xml:space="preserve" xmlns="http://www.w3.org/2000/svg" xmlns:xlink="http://www.w3.org/1999/xlink"><g><path d="M25.005,12.572c-6.852-0.007-12.431,5.571-12.435,12.425c-0.002,6.856,5.574,12.428,12.422,12.43   C31.854,37.425,37.43,31.854,37.43,25C37.436,18.146,31.857,12.572,25.005,12.572z M24.994,35.79   c-5.947,0-10.788-4.841-10.786-10.796c0.003-5.949,4.846-10.787,10.797-10.787c5.946,0,10.794,4.842,10.786,10.791   C35.796,30.96,30.953,35.79,24.994,35.79z"/><polygon points="25.777,18.234 25.01,16.115 24.229,18.236 22.004,17.844 23.448,19.581 22.003,21.311 24.227,20.924    25.005,23.043 25.777,20.924 28.005,21.319 26.555,19.585 28.003,17.852  "/></g></svg>